<?xml version="1.0" encoding="UTF-8" ?>
<!DOCTYPE svg PUBLIC "-//W3C//DTD SVG 1.1//EN" "http://www.w3.org/Graphics/SVG/1.1/DTD/svg11.dtd">
<svg width="626pt" height="626pt" viewBox="0 0 626 626" version="1.1" xmlns="http://www.w3.org/2000/svg">
<g id="#eac9d4ff">
<path fill="#eac9d4" opacity="1.00" d=" M 315.32 321.38 C 326.73 328.84 340.81 329.21 353.94 330.37 C 354.73 334.55 354.59 338.86 355.65 343.01 C 355.51 338.73 354.89 334.49 354.67 330.22 C 359.97 328.95 365.52 329.52 370.83 328.19 C 377.50 327.29 383.68 324.40 390.30 323.36 C 393.79 338.66 397.86 353.84 401.06 369.21 C 398.14 368.85 395.21 368.42 392.27 368.58 C 386.56 368.68 380.63 370.37 376.57 374.58 C 370.15 379.98 367.43 388.75 360.16 393.25 C 350.97 399.71 337.75 398.72 328.94 392.09 C 320.96 385.64 319.63 374.51 312.87 367.12 C 306.53 361.10 297.06 361.70 288.95 361.42 C 282.85 361.63 276.97 358.02 274.24 352.60 C 272.43 349.34 272.76 345.49 272.42 341.90 C 271.84 347.02 272.75 352.69 276.53 356.47 C 281.60 362.14 289.91 362.53 296.99 362.54 C 302.53 362.23 308.44 363.52 312.60 367.39 C 319.07 374.44 320.28 384.99 327.56 391.43 C 335.75 399.30 349.24 400.76 358.95 394.86 C 368.59 389.17 371.57 376.64 381.65 371.50 C 384.70 369.59 388.36 369.49 391.84 369.60 C 395.00 370.31 398.20 370.88 401.34 371.71 C 403.75 376.87 404.09 382.69 405.58 388.14 C 408.29 398.28 410.29 408.59 413.00 418.73 C 414.67 424.32 415.22 430.20 417.25 435.67 C 418.29 436.12 419.35 436.52 420.43 436.86 C 426.42 438.64 432.62 436.55 438.22 434.40 C 440.63 433.53 442.65 431.94 444.34 430.03 C 446.16 428.41 448.04 426.85 449.95 425.32 C 454.41 422.50 456.84 417.62 459.38 413.18 C 460.31 411.82 460.24 410.24 459.81 408.73 C 462.27 400.86 465.62 392.17 462.09 384.08 C 455.35 368.54 447.06 353.72 439.74 338.45 C 437.78 333.83 435.85 329.18 433.22 324.90 C 438.34 327.47 443.31 330.53 447.04 334.96 C 457.83 346.97 461.26 363.22 468.65 377.19 C 472.93 385.57 478.81 392.97 484.75 400.23 C 485.69 401.52 487.21 402.12 488.60 402.82 C 489.52 404.49 490.23 406.27 491.01 408.03 C 487.89 408.73 484.78 409.39 481.69 410.19 C 477.65 403.94 475.65 396.64 471.97 390.18 C 475.63 396.90 477.68 404.49 482.11 410.76 C 486.16 410.21 491.37 407.70 494.63 411.37 C 499.84 417.34 504.23 424.02 508.13 430.91 C 513.65 441.79 517.25 454.29 514.64 466.51 C 511.96 478.90 506.96 491.59 496.98 499.92 C 488.51 507.10 477.51 512.74 466.10 511.23 C 455.28 509.59 445.96 503.20 437.67 496.42 C 431.91 491.76 428.81 484.86 424.26 479.19 C 421.92 484.05 420.52 489.30 418.32 494.22 C 417.42 496.61 415.95 499.07 416.50 501.71 C 418.32 510.16 422.91 517.78 424.38 526.32 C 420.51 524.33 416.60 521.82 412.03 522.27 C 397.79 521.21 387.40 533.46 373.75 535.06 C 369.51 535.64 365.23 535.63 360.97 535.50 C 352.63 535.32 345.04 531.29 338.02 527.16 C 351.87 537.94 371.99 539.76 387.42 531.28 C 394.69 527.11 402.46 522.99 411.00 522.54 C 417.37 522.65 425.14 525.30 427.12 532.06 C 429.85 540.18 432.53 548.35 436.02 556.18 C 437.71 562.26 439.83 568.21 441.98 574.14 C 440.44 574.90 438.82 575.60 437.06 575.48 C 421.71 575.38 406.35 575.45 391.00 575.42 C 385.51 575.35 379.96 575.92 374.55 574.69 C 382.58 570.70 390.62 566.71 398.34 562.15 C 404.19 558.59 410.55 555.99 417.00 553.76 C 421.21 552.31 425.81 552.87 429.99 551.33 C 413.54 551.66 399.48 561.00 385.56 568.65 C 376.94 572.67 367.77 577.17 357.98 576.07 C 347.95 576.65 338.46 572.69 329.49 568.68 C 322.35 565.70 316.07 561.02 308.79 558.34 C 297.48 553.22 284.36 549.02 272.04 552.81 C 277.37 552.03 282.80 550.95 288.13 552.44 C 301.68 554.21 313.56 561.30 325.58 567.28 C 330.69 570.00 336.13 572.03 341.33 574.56 C 338.60 575.14 335.82 575.59 333.02 575.49 C 309.30 575.22 285.55 575.69 261.84 575.28 C 261.31 574.49 260.76 573.72 260.19 572.97 C 267.12 549.85 275.59 527.20 282.65 504.13 C 282.60 499.81 280.52 495.90 279.29 491.85 C 289.13 489.11 300.03 490.17 309.23 494.61 C 317.24 498.08 324.12 503.56 330.84 509.04 C 321.20 499.59 309.23 491.71 295.67 489.66 C 290.07 488.68 284.50 490.02 279.06 491.20 C 271.38 472.18 266.62 451.99 264.40 431.63 C 274.89 431.83 283.37 438.77 291.97 443.92 C 301.36 450.17 312.29 456.02 323.96 454.55 C 331.33 453.85 337.50 449.48 343.79 446.01 C 350.64 453.18 359.26 458.60 368.79 461.42 C 372.51 462.43 376.33 463.61 380.24 463.24 C 378.66 461.01 375.70 461.07 373.32 460.38 C 362.75 458.33 352.95 452.81 345.63 444.93 C 354.89 437.20 366.51 430.18 379.05 431.57 C 384.31 431.93 388.61 435.24 392.92 437.92 C 386.86 432.25 378.18 428.67 369.91 431.13 C 360.46 433.12 352.90 439.31 344.79 444.09 C 341.30 440.99 339.42 436.46 335.64 433.67 C 336.67 438.11 339.71 441.66 342.68 444.97 C 338.46 449.30 332.55 451.40 326.93 453.23 C 320.51 455.34 313.69 453.78 307.52 451.62 C 298.15 447.86 289.90 441.96 281.30 436.78 C 276.03 433.51 269.96 432.05 264.19 429.97 C 262.81 422.05 263.72 413.97 263.44 405.98 C 263.20 396.07 266.21 386.50 267.30 376.74 C 266.18 377.67 265.41 378.91 265.09 380.33 C 262.43 390.00 261.46 400.01 260.54 409.96 C 260.00 417.60 261.78 425.12 262.36 432.71 C 262.63 440.48 264.36 448.11 266.07 455.67 C 268.27 464.11 269.89 472.77 273.37 480.81 C 269.40 484.74 265.37 488.63 260.97 492.09 C 257.92 494.05 254.77 495.88 251.83 498.02 C 251.12 498.03 249.68 498.06 248.97 498.07 C 248.40 490.49 246.64 482.66 241.12 477.07 C 245.34 483.49 248.79 491.00 248.29 498.84 C 245.54 502.41 240.71 503.18 236.82 504.99 C 226.27 509.83 214.45 510.74 203.00 510.58 C 197.38 510.74 191.35 510.93 186.52 507.56 C 173.86 501.03 165.01 488.33 162.16 474.51 C 160.95 465.47 160.87 455.92 164.20 447.30 C 169.26 434.58 174.00 421.72 179.07 409.01 C 184.52 394.86 189.95 380.71 195.42 366.57 C 196.98 362.57 198.08 358.39 200.13 354.60 C 201.51 354.69 202.79 355.21 203.92 356.02 C 205.04 357.02 206.14 358.06 207.31 359.02 C 210.20 361.50 213.44 363.53 216.81 365.29 C 228.06 371.38 238.54 378.88 250.09 384.38 C 251.62 381.87 252.04 378.94 252.46 376.10 C 254.45 364.80 256.16 353.45 258.00 342.12 C 269.66 336.56 281.89 332.28 294.21 328.43 C 301.32 326.33 308.52 324.39 315.32 321.38 M 313.08 332.83 C 314.58 330.82 316.07 328.82 317.56 326.82 C 315.94 328.73 314.46 330.74 313.08 332.83 M 378.13 328.17 C 380.50 331.67 382.25 335.63 381.53 339.97 C 381.88 335.72 381.47 331.20 378.13 328.17 M 332.18 340.83 C 333.75 336.92 334.55 332.71 336.79 329.09 C 334.62 332.72 332.84 336.62 332.18 340.83 M 463.88 380.69 C 465.63 382.96 467.75 385.03 470.41 386.20 C 470.13 383.26 466.98 380.00 463.88 380.69 M 251.26 384.64 C 250.73 386.15 253.21 387.52 254.41 386.66 C 254.87 385.18 252.44 383.77 251.26 384.64 M 193.94 387.27 C 198.42 393.05 204.36 397.47 210.28 401.67 C 220.54 408.04 231.80 413.10 243.83 414.90 C 238.28 412.70 232.23 411.76 226.65 409.54 C 214.29 404.62 203.10 396.89 193.94 387.27 M 480.98 411.58 C 482.41 415.99 484.27 420.29 486.45 424.39 C 489.89 424.64 491.86 427.69 493.93 430.04 C 496.64 433.27 498.21 437.21 499.97 440.99 C 498.36 440.07 496.57 440.54 495.09 441.41 C 497.21 441.73 499.33 442.05 501.45 442.40 L 500.97 441.94 C 501.32 441.76 502.00 441.40 502.34 441.22 C 499.82 435.82 497.31 430.24 493.01 426.00 C 491.10 423.92 488.63 422.45 486.78 420.34 C 485.29 417.61 484.44 414.57 482.86 411.89 C 482.39 411.81 481.45 411.66 480.98 411.58 M 469.17 461.15 C 464.85 465.51 458.68 466.95 452.89 468.19 C 441.41 469.97 430.74 464.42 420.10 461.16 C 429.42 465.16 439.05 469.45 449.41 469.20 C 455.22 468.46 461.42 467.91 466.15 464.06 C 475.85 457.59 478.45 445.48 481.90 435.11 C 477.46 443.66 476.40 454.18 469.17 461.15 M 170.13 440.65 C 176.57 440.19 182.60 442.88 188.26 445.63 C 196.92 450.63 202.94 458.99 207.38 467.77 C 211.36 475.73 219.20 482.85 228.69 481.85 L 228.62 481.26 C 222.80 482.47 217.58 479.27 213.38 475.62 C 208.60 470.09 206.01 463.09 201.60 457.29 C 195.54 448.72 186.16 442.51 175.84 440.51 C 174.01 440.54 171.71 439.56 170.13 440.65 M 505.21 441.02 C 510.13 450.68 506.05 461.43 503.29 471.07 C 500.19 482.80 495.27 494.80 485.72 502.77 C 482.86 505.33 479.26 506.76 476.06 508.81 C 489.63 503.83 497.80 490.52 502.27 477.46 C 504.76 468.53 507.87 459.64 508.33 450.31 C 507.96 447.04 507.28 443.66 505.21 441.02 M 410.25 445.04 C 413.90 454.40 418.02 463.55 421.89 472.81 C 418.16 463.49 414.25 454.24 410.25 445.04 M 236.42 473.28 C 235.55 474.48 237.68 475.69 238.54 474.70 C 239.40 473.48 237.27 472.27 236.42 473.28 M 359.66 508.44 C 350.47 513.50 340.39 516.79 330.10 518.71 C 326.48 519.73 322.72 519.16 319.03 519.48 C 317.73 519.92 314.62 520.09 315.53 522.22 C 317.35 522.43 319.20 522.59 321.05 522.52 C 336.77 521.27 352.19 516.14 365.50 507.70 L 365.63 506.31 C 363.41 506.19 361.53 507.47 359.66 508.44 Z" />
</g>
<g id="#f8f3f5ff">
<path fill="#f8f3f5" opacity="1.00" d=" M 94.75 52.91 C 94.54 51.11 94.46 47.99 97.07 48.13 C 104.39 47.90 111.73 47.87 119.06 47.99 C 119.06 48.48 119.05 49.47 119.05 49.96 C 111.91 50.58 104.73 49.86 97.60 50.59 C 96.72 57.66 97.76 64.87 96.87 71.98 C 96.39 72.05 95.43 72.19 94.95 72.27 C 94.26 65.82 95.52 59.36 94.75 52.91 Z" />
<path fill="#f8f3f5" opacity="1.00" d=" M 200.94 47.99 C 208.91 47.90 216.89 47.93 224.85 48.17 C 227.90 48.16 227.21 51.95 227.22 53.97 C 226.69 59.66 227.51 65.37 227.11 71.06 C 226.55 71.09 225.43 71.15 224.87 71.18 C 224.39 64.55 225.78 57.89 224.93 51.28 C 223.93 49.50 221.72 49.99 220.03 49.89 C 213.68 50.16 207.31 50.45 200.96 49.97 C 200.95 49.47 200.95 48.49 200.94 47.99 Z" />
</g>
<g id="#ffffffff">
<path fill="#ffffff" opacity="1.00" d=" M 457.06 132.92 C 462.04 132.81 467.01 133.30 472.00 133.14 C 473.52 133.38 475.64 132.58 476.69 134.09 C 470.86 136.23 464.35 135.01 458.23 135.33 C 456.50 141.89 458.91 148.61 458.14 155.25 C 457.66 155.20 456.71 155.09 456.23 155.04 C 456.04 150.35 456.40 145.67 456.29 140.99 C 456.35 138.29 455.97 135.47 457.06 132.92 Z" />
<path fill="#ffffff" opacity="1.00" d=" M 555.66 132.96 C 562.60 133.53 569.65 132.66 576.54 133.58 C 578.72 139.87 576.11 146.54 577.02 153.01 C 576.76 153.44 576.25 154.28 576.00 154.70 C 575.73 154.28 575.19 153.44 574.91 153.01 C 575.11 147.07 575.67 141.07 574.67 135.16 C 568.43 134.85 562.15 136.01 555.92 135.10 C 555.85 134.57 555.72 133.50 555.66 132.96 Z" />
<path fill="#ffffff" opacity="1.00" d=" M 224.17 134.08 C 224.63 134.10 225.55 134.15 226.01 134.17 C 226.08 140.13 225.23 146.10 226.07 152.04 C 226.06 154.61 227.38 158.10 224.76 159.84 C 220.35 159.95 215.92 159.36 211.56 160.35 C 210.24 159.84 208.73 159.48 207.92 158.20 C 213.04 157.50 218.20 158.54 223.32 157.94 L 223.88 157.90 L 223.94 157.34 C 224.87 149.61 223.99 141.83 224.17 134.08 Z" />
<path fill="#ffffff" opacity="1.00" d=" M 94.38 135.20 C 94.69 135.24 95.33 135.32 95.64 135.37 C 96.16 142.63 95.20 149.96 96.23 157.20 L 96.27 157.76 L 96.82 157.82 C 99.57 158.35 102.38 158.20 105.18 158.23 C 102.99 160.21 99.92 160.02 97.19 160.31 C 95.93 160.02 93.90 159.56 94.03 157.88 C 93.82 150.32 93.61 142.74 94.38 135.20 Z" />
<path fill="#ffffff" opacity="1.00" d=" M 497.10 171.25 C 500.04 169.54 504.76 168.85 507.70 171.01 C 505.35 173.70 501.13 170.50 498.98 173.21 C 498.34 175.98 499.42 179.13 497.98 181.67 C 496.02 178.62 497.20 174.69 497.10 171.25 Z" />
<path fill="#ffffff" opacity="1.00" d=" M 525.18 170.01 C 528.95 169.76 533.79 168.70 536.87 171.27 C 537.24 174.73 537.99 178.63 536.04 181.77 C 534.85 179.05 535.41 176.01 535.08 173.13 C 532.19 170.91 528.46 172.35 525.14 172.03 C 525.15 171.53 525.17 170.52 525.18 170.01 Z" />
<path fill="#ffffff" opacity="1.00" d=" M 497.04 197.91 C 496.68 194.69 496.14 191.13 497.92 188.21 C 499.42 190.99 499.19 194.23 499.73 197.26 C 502.46 199.02 506.12 196.61 508.70 198.87 C 506.44 200.36 503.51 199.66 500.96 199.79 C 499.57 199.65 497.05 199.95 497.04 197.91 Z" />
<path fill="#ffffff" opacity="1.00" d=" M 575.21 211.16 C 575.56 211.22 576.25 211.34 576.59 211.40 C 576.99 219.52 577.68 227.72 576.96 235.81 C 574.62 236.32 572.23 236.50 569.87 236.12 C 569.14 233.05 572.68 233.97 574.57 233.42 C 574.68 225.99 574.83 218.57 575.21 211.16 Z" />
<path fill="#ffffff" opacity="1.00" d=" M 455.37 213.23 C 457.65 212.75 457.09 215.54 457.36 216.97 C 457.41 222.57 457.03 228.18 457.37 233.78 C 464.18 234.94 471.10 233.87 477.95 234.01 C 478.38 234.26 479.24 234.77 479.67 235.02 C 477.93 237.04 475.26 235.78 473.01 235.88 C 467.02 235.88 461.00 237.16 455.04 236.00 C 454.45 234.05 454.94 232.01 455.02 230.03 C 455.56 224.44 454.88 218.82 455.37 213.23 Z" />
<path fill="#ffffff" opacity="1.00" d=" M 313.08 332.83 C 314.46 330.74 315.94 328.73 317.56 326.82 C 316.07 328.82 314.58 330.82 313.08 332.83 Z" />
<path fill="#ffffff" opacity="1.00" d=" M 378.13 328.17 C 381.47 331.20 381.88 335.72 381.53 339.97 C 382.25 335.63 380.50 331.67 378.13 328.17 Z" />
<path fill="#ffffff" opacity="1.00" d=" M 332.18 340.83 C 332.84 336.62 334.62 332.72 336.79 329.09 C 334.55 332.71 333.75 336.92 332.18 340.83 Z" />
<path fill="#ffffff" opacity="1.00" d=" M 353.94 330.37 L 354.67 330.22 C 354.89 334.49 355.51 338.73 355.65 343.01 C 354.59 338.86 354.73 334.55 353.94 330.37 Z" />
<path fill="#ffffff" opacity="1.00" d=" M 251.26 384.64 C 252.44 383.77 254.87 385.18 254.41 386.66 C 253.21 387.52 250.73 386.15 251.26 384.64 Z" />
<path fill="#ffffff" opacity="1.00" d=" M 471.97 390.18 C 475.65 396.64 477.65 403.94 481.69 410.19 L 482.11 410.76 C 477.68 404.49 475.63 396.90 471.97 390.18 Z" />
<path fill="#ffffff" opacity="1.00" d=" M 410.25 445.04 C 414.25 454.24 418.16 463.49 421.89 472.81 C 418.02 463.55 413.90 454.40 410.25 445.04 Z" />
</g>
<g id="#fffafeff">
</g>
<g id="#fbf4f7ff">
<path fill="#fbf4f7" opacity="1.00" d=" M 139.73 88.75 C 143.25 87.45 147.30 88.19 151.03 88.10 C 150.99 88.58 150.91 89.54 150.87 90.02 C 147.92 90.40 144.93 90.26 141.96 90.43 L 141.43 90.45 L 141.42 90.99 C 141.31 94.72 141.52 98.49 140.86 102.18 L 140.53 101.49 C 140.50 100.51 140.16 99.67 139.48 98.97 C 138.37 95.81 137.98 91.66 139.73 88.75 Z" />
</g>
<g id="#f8f3f6ff">
<path fill="#f8f3f6" opacity="1.00" d=" M 170.07 88.44 C 173.82 87.71 177.80 87.71 181.51 88.64 C 183.39 91.27 182.21 95.24 181.77 98.30 C 181.41 95.66 181.02 93.03 180.51 90.42 L 179.83 90.35 L 179.28 90.32 C 176.57 90.00 173.43 91.02 171.03 89.43 C 170.94 89.34 170.75 89.16 170.66 89.06 L 170.07 88.44 Z" />
</g>
<g id="#fbf1f6ff">
<path fill="#fbf1f6" opacity="1.00" d=" M 170.66 89.06 C 170.75 89.16 170.94 89.34 171.03 89.43 C 170.94 89.34 170.75 89.16 170.66 89.06 Z" />
<path fill="#fbf1f6" opacity="1.00" d=" M 179.83 90.35 L 180.51 90.42 C 181.02 93.03 181.41 95.66 181.77 98.30 C 181.88 99.46 181.87 100.62 181.76 101.79 C 181.39 101.74 180.64 101.65 180.26 101.61 C 179.88 98.05 179.72 94.46 179.82 90.89 L 179.83 90.35 Z" />
<path fill="#fbf1f6" opacity="1.00" d=" M 139.48 98.97 C 140.16 99.67 140.50 100.51 140.53 101.49 C 138.69 101.30 138.34 100.46 139.48 98.97 Z" />
<path fill="#fbf1f6" opacity="1.00" d=" M 139.02 107.97 C 139.50 107.98 140.46 107.99 140.94 108.00 C 141.26 110.86 141.62 113.85 140.83 116.66 C 139.97 117.89 140.28 118.40 141.77 118.17 C 144.90 117.73 148.08 117.75 151.24 117.87 C 151.21 118.38 151.15 119.40 151.13 119.91 C 147.26 120.07 143.36 120.16 139.54 119.49 C 138.37 115.80 139.01 111.79 139.02 107.97 Z" />
<path fill="#fbf1f6" opacity="1.00" d=" M 170.35 118.50 C 173.44 118.14 176.56 118.18 179.67 118.10 L 179.70 118.89 C 176.46 119.47 173.16 119.34 169.88 119.31 L 170.35 118.50 Z" />
</g>
<g id="#fbf3f6ff">
<path fill="#fbf3f6" opacity="1.00" d=" M 141.43 90.45 L 141.96 90.43 C 141.83 90.57 141.56 90.85 141.42 90.99 L 141.43 90.45 Z" />
<path fill="#fbf3f6" opacity="1.00" d=" M 179.28 90.32 L 179.83 90.35 L 179.82 90.89 C 179.68 90.75 179.41 90.46 179.28 90.32 Z" />
<path fill="#fbf3f6" opacity="1.00" d=" M 180.07 107.98 C 180.53 107.93 181.45 107.84 181.92 107.79 C 182.01 111.87 183.49 116.59 180.95 120.20 C 177.42 120.51 173.84 120.66 170.34 120.11 L 169.88 119.31 C 173.16 119.34 176.46 119.47 179.70 118.89 L 179.67 118.10 C 179.46 114.73 179.89 111.35 180.07 107.98 Z" />
<path fill="#fbf3f6" opacity="1.00" d=" M 141.77 118.17 C 140.28 118.40 139.97 117.89 140.83 116.66 C 141.06 117.04 141.53 117.80 141.77 118.17 Z" />
<path fill="#fbf3f6" opacity="1.00" d=" M 96.23 157.20 C 96.37 157.36 96.67 157.67 96.82 157.82 L 96.27 157.76 L 96.23 157.20 Z" />
<path fill="#fbf3f6" opacity="1.00" d=" M 223.32 157.94 C 223.48 157.79 223.78 157.49 223.94 157.34 L 223.88 157.90 L 223.32 157.94 Z" />
</g>
<g id="#1a2e35ff">
<path fill="#1a2e35" opacity="1.00" d=" M 365.39 104.42 C 370.23 94.07 382.43 87.65 393.68 90.22 C 401.55 91.72 408.27 97.75 410.65 105.40 C 413.51 113.97 409.63 124.32 401.65 128.66 C 398.01 130.58 394.03 131.73 390.24 133.29 C 382.86 131.03 374.35 135.18 367.82 129.93 C 362.74 122.58 361.28 112.55 365.39 104.42 Z" />
<path fill="#1a2e35" opacity="1.00" d=" M 285.02 135.01 C 297.49 125.22 314.57 121.16 330.03 125.00 C 338.06 127.09 344.64 132.47 352.09 135.87 C 356.35 135.16 360.47 133.59 364.84 133.50 C 368.51 135.01 372.33 136.13 376.29 136.55 C 380.83 137.05 384.99 139.05 389.05 141.04 C 394.03 145.23 397.83 150.71 399.99 156.85 C 400.21 157.46 400.64 158.69 400.86 159.30 C 404.81 172.69 404.38 186.85 407.37 200.44 C 410.09 212.50 413.04 224.60 417.77 236.07 C 419.31 240.18 420.86 244.30 422.71 248.29 C 424.82 252.89 428.26 256.69 431.08 260.86 C 430.39 260.54 429.02 259.91 428.34 259.59 C 435.12 274.47 444.10 288.25 453.20 301.80 C 464.00 317.91 477.02 332.54 486.37 349.60 C 486.76 350.35 487.13 351.10 487.55 351.85 C 493.97 363.10 498.33 375.99 498.01 389.06 C 497.96 395.08 494.51 400.93 488.60 402.82 C 487.21 402.12 485.69 401.52 484.75 400.23 C 478.81 392.97 472.93 385.57 468.65 377.19 C 461.26 363.22 457.83 346.97 447.04 334.96 C 443.31 330.53 438.34 327.47 433.22 324.90 C 429.19 318.08 426.51 310.53 422.13 303.91 C 411.76 287.90 401.63 271.74 391.26 255.75 C 387.51 250.64 388.83 243.89 388.87 237.99 C 392.18 237.28 395.90 236.97 398.45 234.45 C 404.53 228.62 403.58 217.02 396.51 212.39 C 392.52 210.17 388.30 212.71 384.30 213.32 C 375.05 209.83 368.27 201.94 363.38 193.60 C 357.02 182.95 354.61 170.62 350.76 158.98 C 344.60 161.11 340.28 166.51 336.67 171.68 C 332.78 177.23 330.99 184.01 331.87 190.75 C 324.97 190.86 318.03 191.65 311.14 191.13 C 308.49 189.92 308.51 186.36 307.38 184.01 C 305.01 186.74 304.44 190.38 303.61 193.77 C 294.95 193.55 286.27 192.94 277.61 193.70 C 276.78 203.75 277.58 213.86 277.05 223.93 C 272.97 222.77 268.91 220.13 264.53 221.36 C 261.04 222.17 259.15 225.49 257.20 228.17 C 256.85 226.83 256.58 225.47 256.56 224.09 C 256.72 207.45 256.69 190.52 261.23 174.36 C 262.35 169.87 264.35 165.65 265.36 161.13 C 262.05 163.71 261.04 168.04 259.50 171.74 C 252.60 191.54 256.44 212.91 252.30 233.18 C 251.86 234.97 251.26 236.74 250.37 238.36 C 252.38 229.35 253.74 220.18 253.64 210.93 C 254.47 196.28 254.40 181.05 260.47 167.37 C 262.96 161.03 268.10 156.33 271.53 150.55 C 275.15 144.69 279.76 139.46 285.02 135.01 Z" />
<path fill="#1a2e35" opacity="1.00" d=" M 334.42 242.61 C 339.49 241.60 344.78 243.36 349.10 245.96 C 354.77 249.71 356.32 256.74 357.32 263.01 C 356.56 269.86 353.07 276.49 347.06 280.12 C 342.89 283.35 337.33 283.38 332.39 282.45 C 325.63 281.02 320.35 275.45 317.98 269.14 C 316.58 263.71 317.15 257.66 319.77 252.68 C 322.90 247.41 328.42 243.72 334.42 242.61 M 321.32 257.34 C 318.65 264.76 322.38 274.72 330.29 277.05 C 328.43 273.81 325.47 271.20 324.51 267.48 C 322.69 262.44 324.18 256.67 327.70 252.75 C 329.77 250.14 333.11 249.10 335.36 246.72 C 328.90 246.34 323.34 251.52 321.32 257.34 Z" />
<path fill="#1a2e35" opacity="1.00" d=" M 269.72 300.61 C 278.45 299.70 287.24 300.22 295.99 300.10 C 301.45 300.19 306.97 299.62 312.39 300.52 C 312.79 303.09 313.19 305.66 313.63 308.23 C 313.84 305.47 313.99 302.70 313.86 299.93 C 314.63 302.25 314.58 304.71 314.67 307.13 C 314.72 311.88 314.98 316.64 315.32 321.38 C 308.52 324.39 301.32 326.33 294.21 328.43 C 281.89 332.28 269.66 336.56 258.00 342.12 C 258.62 334.14 260.46 326.33 261.56 318.41 C 262.20 314.80 262.44 311.08 263.62 307.58 C 265.65 305.25 268.12 303.30 269.72 300.61 Z" />
</g>
<g id="#fffbfcff">
</g>
<g id="#fff9ffff">
</g>
<g id="#fffbffff">
</g>
<g id="#fff9feff">
</g>
<g id="#fffbfeff">
</g>
<g id="#fefdfeff">
</g>
<g id="#fff9fdff">
</g>
<g id="#d55860ff">
<path fill="#d55860" opacity="1.00" d=" M 364.84 133.50 C 365.83 132.30 366.81 131.11 367.82 129.93 C 374.35 135.18 382.86 131.03 390.24 133.29 C 390.99 135.99 390.82 138.77 389.05 141.04 C 384.99 139.05 380.83 137.05 376.29 136.55 C 372.33 136.13 368.51 135.01 364.84 133.50 Z" />
</g>
<g id="#fffdfeff">
</g>
<g id="#ecececff">
<path fill="#ececec" opacity="1.00" d=" M 127.49 145.40 C 133.16 142.84 139.38 142.19 145.09 139.78 C 150.65 141.78 156.21 138.34 161.82 140.08 C 168.29 141.71 175.88 139.91 181.51 144.06 C 181.32 142.97 181.14 141.88 180.97 140.80 C 183.06 141.43 182.86 144.39 184.99 144.94 C 189.34 146.96 194.19 148.00 198.14 150.82 C 201.48 153.19 205.71 154.51 207.92 158.20 C 208.73 159.48 210.24 159.84 211.56 160.35 C 214.91 162.97 217.35 166.62 220.44 169.56 C 223.34 172.25 224.04 177.01 227.80 178.71 C 229.05 181.04 228.80 183.95 230.17 186.27 C 230.61 186.31 231.49 186.40 231.93 186.45 C 230.99 191.22 234.89 195.00 235.60 199.54 C 236.36 204.41 238.12 209.26 237.50 214.25 C 237.43 216.68 238.41 219.09 237.60 221.48 C 236.75 224.23 237.78 226.98 238.27 229.69 C 237.73 229.65 236.64 229.56 236.10 229.51 C 236.16 231.79 236.27 234.17 234.87 236.12 C 232.76 240.03 231.88 244.44 229.85 248.38 C 228.23 248.07 226.59 247.80 224.98 247.44 C 222.80 247.05 220.62 246.52 218.64 245.51 C 212.77 242.64 206.77 240.03 200.92 237.13 C 199.11 236.01 196.99 236.77 195.05 236.98 C 194.42 236.11 194.38 235.00 194.16 234.00 C 192.87 233.89 191.59 233.71 190.30 233.68 C 186.54 229.43 180.47 229.13 175.79 226.34 C 170.11 222.87 163.54 221.39 157.67 218.32 C 156.13 217.41 154.29 218.07 152.66 217.55 C 152.31 216.60 152.55 214.95 151.19 214.81 C 148.03 214.79 143.99 213.73 142.04 217.00 C 142.47 214.99 142.94 213.01 143.43 211.02 C 140.31 208.73 136.64 207.42 133.14 205.85 C 117.85 199.14 102.67 192.20 87.13 186.10 C 87.42 187.02 87.72 187.94 88.05 188.86 C 87.62 188.90 86.75 188.99 86.32 189.04 C 83.88 185.56 82.32 181.43 82.24 177.15 C 86.55 175.80 89.15 171.61 90.87 167.68 C 92.36 166.04 94.59 165.30 96.28 163.87 C 96.21 162.95 96.13 162.04 96.05 161.12 C 96.33 160.92 96.90 160.51 97.19 160.31 C 99.92 160.02 102.99 160.21 105.18 158.23 C 105.12 156.13 104.93 154.04 104.84 151.95 C 107.28 151.76 109.63 154.70 111.89 152.87 C 116.64 149.51 122.26 147.83 127.49 145.40 Z" />
<path fill="#ececec" opacity="1.00" d=" M 108.33 253.27 C 117.62 248.84 128.10 248.68 138.07 247.00 C 144.02 245.85 149.89 247.82 155.81 248.15 C 161.15 248.41 165.90 251.12 170.99 252.38 C 173.98 251.94 177.02 251.19 180.03 251.99 L 180.10 253.03 C 177.67 253.20 175.23 253.34 172.80 253.55 C 173.20 254.01 174.01 254.93 174.41 255.39 C 177.44 258.94 180.55 262.73 181.69 267.36 C 183.37 274.85 181.85 282.73 178.65 289.61 C 173.29 301.21 165.49 311.51 156.78 320.79 C 152.08 325.79 146.46 329.78 141.36 334.36 C 139.23 336.28 136.95 338.04 134.47 339.51 C 127.10 343.81 120.13 348.82 112.31 352.34 C 110.10 353.04 109.16 355.04 108.83 357.20 C 106.94 342.66 104.75 326.81 94.43 315.55 C 92.15 313.42 89.92 310.33 86.54 310.19 C 84.65 321.04 82.17 331.95 82.64 343.04 C 82.92 350.72 86.87 357.51 89.00 364.74 C 86.26 364.17 83.55 364.99 81.25 366.49 C 78.29 368.26 75.09 369.56 71.85 370.73 C 73.94 370.75 76.03 370.82 78.12 370.93 C 78.52 373.10 75.24 372.05 73.99 372.34 C 71.99 372.15 70.11 371.40 68.21 370.80 C 68.82 371.60 69.43 372.41 70.04 373.22 C 67.76 372.97 65.30 371.77 63.15 373.14 C 55.23 376.81 46.60 378.48 38.52 381.70 C 35.41 381.64 32.66 379.29 31.40 376.53 C 30.07 373.70 28.52 371.01 26.49 368.63 C 26.28 367.19 26.52 365.74 26.42 364.31 C 25.93 362.63 24.33 361.45 24.03 359.70 C 24.00 356.82 25.15 354.01 24.63 351.13 C 23.80 347.24 25.44 343.31 24.30 339.46 C 23.01 335.68 26.74 332.78 27.03 329.14 C 27.98 319.83 33.43 311.89 37.73 303.83 C 41.14 299.34 44.23 294.56 48.23 290.54 C 48.29 287.07 50.46 284.30 53.01 282.15 C 53.78 282.66 54.55 283.18 55.32 283.71 C 58.05 281.64 59.97 278.67 62.87 276.80 C 66.39 273.90 71.72 272.80 73.09 267.91 C 74.93 267.55 77.18 268.16 78.63 266.72 C 78.22 266.26 77.40 265.35 76.99 264.89 C 79.38 263.67 82.25 265.09 84.50 263.51 C 89.62 260.38 95.59 258.92 100.54 255.49 C 102.74 253.61 105.85 254.50 108.33 253.27 Z" />
<path fill="#ececec" opacity="1.00" d=" M 184.54 284.56 C 190.63 276.04 199.95 268.19 211.01 268.65 C 215.92 268.51 220.63 270.28 224.54 273.19 C 221.21 278.18 218.71 283.79 217.98 289.78 C 217.04 295.12 218.06 300.48 218.42 305.81 C 212.62 311.68 206.49 317.71 203.74 325.71 C 200.01 335.49 202.09 346.07 203.92 356.02 C 202.79 355.21 201.51 354.69 200.13 354.60 C 198.08 358.39 196.98 362.57 195.42 366.57 C 189.95 380.71 184.52 394.86 179.07 409.01 C 178.39 403.79 176.28 398.92 175.09 393.82 C 169.25 369.82 169.45 344.70 173.34 320.41 C 175.15 308.03 177.58 295.20 184.54 284.56 Z" />
<path fill="#ececec" opacity="1.00" d=" M 218.50 290.96 C 219.27 282.13 223.79 273.79 230.70 268.24 C 234.03 272.82 233.05 278.72 234.40 283.94 C 235.49 283.28 236.58 282.63 237.65 281.94 C 237.81 284.21 237.97 286.48 237.84 288.76 C 231.93 294.64 225.69 300.27 218.95 305.19 C 218.29 300.48 218.15 295.70 218.50 290.96 Z" />
<path fill="#ececec" opacity="1.00" d=" M 116.29 366.33 C 122.14 361.90 128.65 357.80 136.11 356.97 C 142.29 356.08 148.55 358.76 152.89 363.10 C 156.68 366.62 157.69 372.04 161.21 375.79 C 165.05 379.85 164.93 385.78 165.25 391.00 C 165.85 401.88 164.12 412.90 159.98 422.99 C 154.56 436.13 144.22 446.28 133.38 455.08 C 129.55 448.98 125.14 442.52 125.26 435.01 C 124.95 426.77 130.00 419.28 129.10 411.00 C 128.07 402.85 122.58 396.36 118.45 389.57 C 114.41 383.17 112.14 375.84 110.71 368.45 C 112.77 368.37 114.71 367.66 116.29 366.33 Z" />
</g>
<g id="#fdfdfdff">
</g>
<g id="#febf9cff">
<path fill="#febf9c" opacity="1.00" d=" M 336.67 171.68 C 340.28 166.51 344.60 161.11 350.76 158.98 C 354.61 170.62 357.02 182.95 363.38 193.60 C 368.27 201.94 375.05 209.83 384.30 213.32 C 388.30 212.71 392.52 210.17 396.51 212.39 C 403.58 217.02 404.53 228.62 398.45 234.45 C 395.90 236.97 392.18 237.28 388.87 237.99 C 388.83 243.89 387.51 250.64 391.26 255.75 C 401.63 271.74 411.76 287.90 422.13 303.91 C 426.51 310.53 429.19 318.08 433.22 324.90 C 435.85 329.18 437.78 333.83 439.74 338.45 C 447.06 353.72 455.35 368.54 462.09 384.08 C 465.62 392.17 462.27 400.86 459.81 408.73 C 457.13 414.62 453.16 419.74 449.95 425.32 C 448.04 426.85 446.16 428.41 444.34 430.03 C 441.64 431.08 439.05 432.36 436.39 433.49 C 431.33 435.63 425.78 435.96 420.43 436.86 C 419.35 436.52 418.29 436.12 417.25 435.67 C 415.22 430.20 414.67 424.32 413.00 418.73 C 410.29 408.59 408.29 398.28 405.58 388.14 C 404.09 382.69 403.75 376.87 401.34 371.71 C 398.20 370.88 395.00 370.31 391.84 369.60 L 392.27 368.58 C 395.21 368.42 398.14 368.85 401.06 369.21 C 397.86 353.84 393.79 338.66 390.30 323.36 C 383.68 324.40 377.50 327.29 370.83 328.19 C 365.52 329.52 359.97 328.95 354.67 330.22 L 353.94 330.37 C 340.81 329.21 326.73 328.84 315.32 321.38 C 314.98 316.64 314.72 311.88 314.67 307.13 C 319.21 308.18 323.94 308.11 328.52 307.31 C 332.95 306.51 337.56 305.71 341.33 303.07 C 337.23 301.41 332.65 301.90 328.69 303.69 C 325.47 304.96 322.03 306.74 318.50 305.50 C 317.78 302.98 318.23 300.40 318.73 297.91 C 321.54 295.95 324.17 293.61 327.45 292.46 C 331.22 291.15 335.24 290.89 339.17 290.41 C 342.12 290.11 345.05 289.67 348.00 289.36 C 354.53 289.61 361.55 288.10 366.36 283.41 C 368.08 281.78 368.14 279.26 368.23 277.06 C 368.24 265.21 365.82 252.49 357.48 243.53 C 355.85 241.59 353.20 241.35 350.90 240.80 C 345.95 239.51 340.91 238.52 335.84 237.82 C 335.27 236.60 334.81 235.34 334.30 234.11 C 335.23 232.73 336.52 231.61 338.21 231.33 C 344.68 229.83 351.27 231.53 357.77 231.88 C 356.91 230.58 356.12 229.25 355.28 227.95 C 356.74 227.40 358.20 226.82 359.68 226.28 C 358.44 223.16 356.37 220.20 353.39 218.55 C 350.42 217.36 347.13 217.70 344.00 217.62 C 339.02 217.78 334.01 217.31 329.06 217.93 C 327.25 218.11 325.65 219.16 324.62 220.62 C 321.23 225.26 319.90 231.02 316.69 235.76 C 313.09 236.27 309.45 236.11 305.85 235.69 C 309.62 223.62 314.43 211.85 317.46 199.55 C 315.82 201.71 314.66 204.18 313.75 206.73 C 310.24 216.27 306.63 225.79 303.76 235.55 C 299.07 235.91 294.36 236.01 289.70 236.67 C 284.39 237.49 279.20 235.75 274.01 234.95 C 272.10 234.59 270.16 234.40 268.24 234.18 C 266.24 235.95 264.55 238.01 263.03 240.20 C 265.26 240.09 267.48 239.86 269.70 239.64 C 274.32 239.77 281.07 237.13 283.72 242.39 C 287.28 249.49 289.41 257.21 292.93 264.33 C 293.10 264.77 293.43 265.66 293.60 266.10 C 293.61 267.49 293.73 268.92 293.36 270.28 C 291.66 271.77 289.47 272.57 287.51 273.64 C 285.52 278.82 285.65 284.86 282.26 289.46 C 281.28 290.69 279.69 290.40 278.47 289.76 C 276.87 287.26 277.08 284.10 276.49 281.28 C 274.91 281.63 273.33 282.03 271.80 282.58 C 271.44 282.73 270.72 283.02 270.36 283.17 C 269.78 283.41 268.61 283.89 268.03 284.13 C 268.49 285.82 268.94 287.52 269.46 289.20 C 269.94 292.15 270.46 295.08 271.17 297.99 C 276.15 298.91 281.20 297.88 286.20 297.70 C 294.48 297.00 302.95 298.36 311.07 296.37 C 311.35 297.06 311.63 297.75 311.92 298.44 C 298.33 298.42 284.73 298.26 271.14 298.59 C 270.79 299.09 270.08 300.10 269.72 300.61 C 268.12 303.30 265.65 305.25 263.62 307.58 C 262.44 311.08 262.20 314.80 261.56 318.41 C 260.46 326.33 258.62 334.14 258.00 342.12 C 256.16 353.45 254.45 364.80 252.46 376.10 C 252.04 378.94 251.62 381.87 250.09 384.38 C 238.54 378.88 228.06 371.38 216.81 365.29 C 213.44 363.53 210.20 361.50 207.31 359.02 C 217.05 337.98 225.91 316.53 235.39 295.36 C 236.36 293.22 237.25 291.03 237.84 288.76 C 237.97 286.48 237.81 284.21 237.65 281.94 C 236.96 275.76 238.14 269.40 236.20 263.39 C 236.28 262.93 236.44 262.01 236.52 261.54 C 239.48 252.93 246.23 246.37 250.37 238.36 C 251.26 236.74 251.86 234.97 252.30 233.18 C 255.15 233.92 255.82 229.94 257.20 228.17 C 259.15 225.49 261.04 222.17 264.53 221.36 C 268.91 220.13 272.97 222.77 277.05 223.93 C 277.58 213.86 276.78 203.75 277.61 193.70 C 286.27 192.94 294.95 193.55 303.61 193.77 C 304.44 190.38 305.01 186.74 307.38 184.01 C 308.51 186.36 308.49 189.92 311.14 191.13 C 318.03 191.65 324.97 190.86 331.87 190.75 C 330.99 184.01 332.78 177.23 336.67 171.68 M 335.26 184.41 C 335.23 184.94 335.15 186.01 335.11 186.55 C 342.52 186.37 349.82 187.48 357.16 188.16 C 357.99 186.63 356.18 185.53 355.20 184.71 C 349.33 180.96 341.20 180.62 335.26 184.41 M 285.01 202.07 C 290.67 201.71 296.34 201.42 302.00 201.08 C 301.41 197.12 296.45 196.15 293.10 196.34 C 289.83 196.67 285.05 198.09 285.01 202.07 M 332.89 203.30 C 335.93 202.69 338.81 201.22 341.97 201.21 C 345.12 201.04 348.11 202.18 351.14 202.86 C 347.76 196.34 336.13 196.80 332.89 203.30 M 340.42 205.38 C 337.88 206.69 337.45 210.55 339.57 212.44 C 342.00 214.99 346.96 213.57 347.39 209.96 C 348.00 206.34 343.48 203.42 340.42 205.38 M 284.02 211.01 C 286.71 210.41 289.25 209.26 291.98 208.81 C 295.50 208.30 298.89 209.64 302.31 210.19 C 298.74 203.77 287.31 204.49 284.02 211.01 M 375.04 233.12 C 377.22 235.40 379.67 237.42 382.30 239.18 C 382.73 235.02 378.59 233.02 375.04 233.12 Z" />
<path fill="#febf9c" opacity="1.00" d=" M 236.42 473.28 C 237.27 472.27 239.40 473.48 238.54 474.70 C 237.68 475.69 235.55 474.48 236.42 473.28 Z" />
</g>
<g id="#fff7fdff">
</g>
<g id="#fafdfdff">
</g>
<g id="#212a2cff">
<path fill="#212a2c" opacity="1.00" d=" M 335.26 184.41 C 341.20 180.62 349.33 180.96 355.20 184.71 C 356.18 185.53 357.99 186.63 357.16 188.16 C 349.82 187.48 342.52 186.37 335.11 186.55 C 335.15 186.01 335.23 184.94 335.26 184.41 Z" />
<path fill="#212a2c" opacity="1.00" d=" M 535.05 509.97 C 535.48 509.81 536.34 509.49 536.77 509.33 C 536.24 513.37 537.09 517.38 537.46 521.39 C 537.94 526.89 537.99 532.45 539.01 537.89 C 540.05 542.89 538.92 547.97 538.89 553.01 C 538.51 559.07 538.68 565.14 538.69 571.21 C 538.29 569.72 537.82 568.26 537.46 566.78 C 536.91 559.92 535.14 553.14 532.16 546.93 C 531.52 545.55 530.92 544.18 530.35 542.79 C 531.20 543.54 532.04 544.30 532.86 545.10 C 534.91 549.83 535.95 554.93 537.91 559.68 C 538.82 551.10 537.68 542.51 537.39 533.93 C 536.85 525.92 536.37 517.89 535.05 509.97 Z" />
<path fill="#212a2c" opacity="1.00" d=" M 539.72 538.45 C 541.68 529.91 543.95 521.33 548.09 513.55 L 548.63 514.14 C 545.09 522.17 542.45 530.53 540.37 539.04 L 539.72 538.45 Z" />
</g>
<g id="#e1e1e1ff">
<path fill="#e1e1e1" opacity="1.00" d=" M 87.13 186.10 C 102.67 192.20 117.85 199.14 133.14 205.85 C 136.64 207.42 140.31 208.73 143.43 211.02 C 142.94 213.01 142.47 214.99 142.04 217.00 C 142.24 218.58 142.47 220.16 142.65 221.75 C 142.23 221.94 141.38 222.31 140.96 222.50 C 140.19 224.31 139.39 226.10 138.52 227.85 C 139.11 229.14 139.64 230.45 140.26 231.73 C 138.96 231.73 137.64 231.53 136.36 231.79 C 135.30 233.13 136.06 235.10 135.94 236.70 C 135.50 236.64 134.61 236.52 134.16 236.46 C 134.42 237.34 134.67 238.22 134.94 239.10 C 133.28 239.58 131.23 240.83 129.73 239.35 C 126.25 237.12 125.08 232.07 120.71 231.30 C 119.30 225.66 113.74 222.77 111.12 217.82 C 110.25 215.44 107.19 215.96 105.92 214.01 C 104.90 212.91 105.39 211.27 104.87 209.97 C 103.38 208.13 101.19 207.10 98.98 206.44 C 98.53 203.77 97.43 201.33 95.98 199.06 C 94.16 195.08 91.12 191.90 88.05 188.86 C 87.72 187.94 87.42 187.02 87.13 186.10 Z" />
</g>
<g id="#fcf7faff">
<path fill="#fcf7fa" opacity="1.00" d=" M 88.05 188.86 C 91.12 191.90 94.16 195.08 95.98 199.06 C 95.51 199.28 94.57 199.73 94.10 199.95 C 91.79 196.90 89.34 193.96 87.04 190.91 C 87.29 190.39 87.80 189.37 88.05 188.86 Z" />
</g>
<g id="#f5f5f5ff">
<path fill="#f5f5f5" opacity="1.00" d=" M 525.66 196.69 C 531.33 195.11 536.63 191.44 542.75 192.15 C 549.06 193.35 555.90 193.69 561.20 197.77 C 565.97 201.74 569.19 207.30 570.96 213.18 C 571.63 218.94 571.54 224.88 570.78 230.61 C 567.68 237.44 564.78 244.42 560.71 250.74 C 558.72 253.79 556.92 256.95 555.10 260.10 C 554.30 261.20 554.56 262.58 554.54 263.86 C 553.79 263.78 553.04 263.71 552.30 263.64 C 546.95 273.18 539.29 281.03 532.34 289.35 C 528.70 293.06 523.88 296.47 523.04 301.97 C 524.07 305.69 526.81 309.18 530.55 310.48 C 534.76 312.46 539.53 311.94 544.04 311.95 C 547.18 311.97 550.09 310.36 553.25 310.61 C 555.83 310.76 558.41 310.54 560.99 310.40 C 565.23 310.24 568.63 313.16 572.44 314.51 C 573.14 313.75 573.96 313.17 574.90 312.79 C 576.58 315.21 574.77 318.30 576.20 320.84 C 577.75 324.38 578.40 328.66 576.20 332.08 C 575.40 337.06 571.09 340.34 570.15 345.24 C 566.23 346.85 564.73 351.10 561.48 353.52 C 557.36 356.71 554.52 361.27 550.18 364.22 C 544.94 367.56 540.98 372.47 535.69 375.76 C 531.11 379.25 525.76 381.63 521.51 385.55 C 519.18 386.61 516.50 386.85 514.34 388.30 C 514.32 389.35 514.87 390.04 516.01 390.37 C 514.80 391.06 513.65 391.85 512.46 392.55 C 512.23 394.43 512.03 396.31 511.89 398.20 C 509.79 396.87 510.16 394.07 509.50 391.98 C 508.93 393.18 508.08 394.40 508.30 395.81 C 508.81 398.64 512.71 399.86 512.27 403.00 C 512.61 404.98 510.90 406.24 509.83 407.63 C 510.35 407.52 511.40 407.30 511.93 407.19 C 511.84 409.05 511.92 410.91 511.98 412.77 C 511.43 413.51 510.89 414.25 510.35 414.99 C 511.68 416.41 512.76 418.05 512.70 420.07 C 516.03 420.37 518.98 418.55 522.20 418.05 C 524.60 417.35 527.74 416.92 528.84 414.34 C 536.64 410.35 543.56 404.25 552.34 402.35 C 558.36 401.49 565.00 400.25 570.61 403.37 C 572.99 404.72 575.79 405.21 578.09 406.69 C 579.40 409.92 581.93 412.41 583.54 415.49 C 587.12 421.31 586.14 428.47 586.00 434.97 C 584.17 441.85 581.50 448.60 577.60 454.59 C 575.65 457.55 574.51 461.08 571.84 463.52 C 567.40 468.19 564.08 473.82 560.35 479.04 C 560.49 479.63 560.77 480.82 560.91 481.41 C 554.52 486.19 547.87 491.91 546.04 500.07 C 544.90 504.23 545.85 508.55 547.69 512.36 C 547.79 512.66 547.99 513.25 548.09 513.55 C 543.95 521.33 541.68 529.91 539.72 538.45 L 539.01 537.89 C 537.99 532.45 537.94 526.89 537.46 521.39 C 537.09 517.38 536.24 513.37 536.77 509.33 C 541.25 507.44 542.73 502.45 543.20 498.02 C 544.22 487.93 542.39 477.68 538.77 468.25 C 537.48 465.13 536.10 461.75 533.23 459.74 C 529.95 457.39 525.23 458.94 522.96 461.97 C 519.89 465.92 519.19 471.12 519.23 475.98 C 519.07 484.04 521.42 491.84 523.49 499.54 C 524.66 503.98 527.47 508.22 532.01 509.71 C 525.72 510.22 521.49 515.30 516.35 518.30 C 499.41 528.63 480.50 536.19 460.75 538.71 C 452.72 539.81 444.57 538.22 436.58 539.55 C 436.07 545.08 436.75 550.65 436.02 556.18 C 432.53 548.35 429.85 540.18 427.12 532.06 C 425.14 525.30 417.37 522.65 411.00 522.54 C 402.46 522.99 394.69 527.11 387.42 531.28 C 371.99 539.76 351.87 537.94 338.02 527.16 C 345.04 531.29 352.63 535.32 360.97 535.50 C 365.23 535.63 369.51 535.64 373.75 535.06 C 387.40 533.46 397.79 521.21 412.03 522.27 C 416.60 521.82 420.51 524.33 424.38 526.32 C 422.91 517.78 418.32 510.16 416.50 501.71 C 415.95 499.07 417.42 496.61 418.32 494.22 C 420.52 489.30 421.92 484.05 424.26 479.19 C 428.81 484.86 431.91 491.76 437.67 496.42 C 445.96 503.20 455.28 509.59 466.10 511.23 C 477.51 512.74 488.51 507.10 496.98 499.92 C 506.96 491.59 511.96 478.90 514.64 466.51 C 517.25 454.29 513.65 441.79 508.13 430.91 C 504.23 424.02 499.84 417.34 494.63 411.37 C 491.37 407.70 486.16 410.21 482.11 410.76 L 481.69 410.19 C 484.78 409.39 487.89 408.73 491.01 408.03 C 490.23 406.27 489.52 404.49 488.60 402.82 C 494.51 400.93 497.96 395.08 498.01 389.06 C 498.33 375.99 493.97 363.10 487.55 351.85 C 487.85 348.15 489.87 344.80 489.80 341.04 C 490.23 330.61 484.77 321.16 479.21 312.74 C 472.97 303.52 465.14 295.54 457.40 287.59 C 449.50 280.14 441.56 272.69 434.57 264.36 C 435.99 264.01 437.41 263.66 438.83 263.28 C 442.05 268.60 449.32 265.64 453.59 269.41 C 455.37 271.01 457.51 271.93 459.92 272.00 C 462.09 271.99 464.07 273.84 464.14 276.02 C 464.44 279.54 463.91 283.08 464.32 286.60 C 465.85 287.87 468.01 288.19 469.65 289.38 C 471.44 286.90 474.89 288.20 477.48 287.57 C 479.69 283.68 481.27 279.46 483.65 275.67 C 484.82 273.72 485.73 271.61 486.25 269.39 C 487.10 264.18 490.67 259.79 490.57 254.35 C 493.41 250.78 492.81 245.98 495.01 242.10 C 497.76 234.11 500.08 225.86 504.61 218.63 C 507.02 215.05 508.55 210.76 511.99 207.97 C 516.50 204.17 520.37 199.44 525.66 196.69 Z" />
<path fill="#f5f5f5" opacity="1.00" d=" M 428.34 259.59 C 429.02 259.91 430.39 260.54 431.08 260.86 C 431.66 261.93 432.30 262.99 433.07 263.96 C 440.47 272.52 448.52 280.50 456.86 288.16 C 467.31 298.91 477.93 309.92 484.73 323.46 C 488.16 330.19 490.59 338.00 488.76 345.57 C 488.48 347.17 487.42 348.43 486.37 349.60 C 477.02 332.54 464.00 317.91 453.20 301.80 C 444.10 288.25 435.12 274.47 428.34 259.59 Z" />
</g>
<g id="#222b2bff">
<path fill="#222b2b" opacity="1.00" d=" M 285.01 202.07 C 285.05 198.09 289.83 196.67 293.10 196.34 C 296.45 196.15 301.41 197.12 302.00 201.08 C 296.34 201.42 290.67 201.71 285.01 202.07 Z" />
<path fill="#222b2b" opacity="1.00" d=" M 431.08 260.86 C 432.23 262.03 433.45 263.15 434.57 264.36 C 441.56 272.69 449.50 280.14 457.40 287.59 C 465.14 295.54 472.97 303.52 479.21 312.74 C 484.77 321.16 490.23 330.61 489.80 341.04 C 489.87 344.80 487.85 348.15 487.55 351.85 C 487.13 351.10 486.76 350.35 486.37 349.60 C 487.42 348.43 488.48 347.17 488.76 345.57 C 490.59 338.00 488.16 330.19 484.73 323.46 C 477.93 309.92 467.31 298.91 456.86 288.16 C 448.52 280.50 440.47 272.52 433.07 263.96 C 432.30 262.99 431.66 261.93 431.08 260.86 Z" />
</g>
<g id="#26201dff">
<path fill="#26201d" opacity="1.00" d=" M 332.89 203.30 C 336.13 196.80 347.76 196.34 351.14 202.86 C 348.11 202.18 345.12 201.04 341.97 201.21 C 338.81 201.22 335.93 202.69 332.89 203.30 Z" />
</g>
<g id="#29221aff">
<path fill="#29221a" opacity="1.00" d=" M 313.75 206.73 C 314.66 204.18 315.82 201.71 317.46 199.55 C 314.43 211.85 309.62 223.62 305.85 235.69 C 305.32 235.66 304.28 235.59 303.76 235.55 C 306.63 225.79 310.24 216.27 313.75 206.73 Z" />
<path fill="#29221a" opacity="1.00" d=" M 284.02 211.01 C 287.31 204.49 298.74 203.77 302.31 210.19 C 298.89 209.64 295.50 208.30 291.98 208.81 C 289.25 209.26 286.71 210.41 284.02 211.01 Z" />
</g>
<g id="#212c30ff">
<path fill="#212c30" opacity="1.00" d=" M 340.42 205.38 C 343.48 203.42 348.00 206.34 347.39 209.96 C 346.96 213.57 342.00 214.99 339.57 212.44 C 337.45 210.55 337.88 206.69 340.42 205.38 Z" />
</g>
<g id="#f8515bff">
<path fill="#f8515b" opacity="1.00" d=" M 324.62 220.62 C 325.65 219.16 327.25 218.11 329.06 217.93 C 334.01 217.31 339.02 217.78 344.00 217.62 C 347.13 217.70 350.42 217.36 353.39 218.55 C 356.37 220.20 358.44 223.16 359.68 226.28 C 358.20 226.82 356.74 227.40 355.28 227.95 C 356.12 229.25 356.91 230.58 357.77 231.88 C 351.27 231.53 344.68 229.83 338.21 231.33 C 336.52 231.61 335.23 232.73 334.30 234.11 C 334.81 235.34 335.27 236.60 335.84 237.82 C 327.71 238.20 319.94 242.88 315.87 249.93 C 312.42 255.52 311.81 262.46 313.01 268.81 C 314.29 274.89 318.50 279.69 321.92 284.69 C 325.63 290.24 333.12 290.72 339.17 290.41 C 335.24 290.89 331.22 291.15 327.45 292.46 C 324.17 293.61 321.54 295.95 318.73 297.91 C 316.76 298.17 314.78 298.35 312.80 298.42 L 311.92 298.44 C 311.63 297.75 311.35 297.06 311.07 296.37 C 311.64 295.62 312.22 294.88 312.82 294.16 C 308.46 296.03 303.74 296.75 299.02 296.42 C 292.11 296.05 284.50 297.68 278.30 293.79 C 274.29 291.45 273.39 286.56 271.80 282.58 C 273.33 282.03 274.91 281.63 276.49 281.28 C 277.08 284.10 276.87 287.26 278.47 289.76 C 279.69 290.40 281.28 290.69 282.26 289.46 C 285.65 284.86 285.52 278.82 287.51 273.64 C 289.47 272.57 291.66 271.77 293.36 270.28 C 293.73 268.92 293.61 267.49 293.60 266.10 C 293.36 261.07 294.43 255.93 293.37 250.98 C 293.16 255.43 293.23 259.88 292.93 264.33 C 289.41 257.21 287.28 249.49 283.72 242.39 C 281.07 237.13 274.32 239.77 269.70 239.64 C 271.02 237.97 272.48 236.42 274.01 234.95 C 279.20 235.75 284.39 237.49 289.70 236.67 C 294.36 236.01 299.07 235.91 303.76 235.55 C 304.28 235.59 305.32 235.66 305.85 235.69 C 309.45 236.11 313.09 236.27 316.69 235.76 C 319.90 231.02 321.23 225.26 324.62 220.62 M 331.89 220.92 C 331.46 223.29 331.47 225.71 331.90 228.07 C 336.96 228.57 342.07 228.46 347.14 228.07 C 347.55 225.69 347.55 223.28 347.14 220.91 C 342.07 220.49 336.95 220.45 331.89 220.92 M 284.70 242.57 C 287.01 244.47 290.47 243.86 293.29 244.36 C 300.29 243.92 307.61 243.51 313.96 240.20 C 304.44 242.64 294.51 244.69 284.70 242.57 M 300.17 252.47 C 299.26 259.60 299.83 266.83 299.65 274.01 C 299.89 278.01 299.13 282.27 300.63 286.09 C 301.39 274.77 301.27 263.39 300.77 252.06 L 300.17 252.47 M 292.89 271.62 C 292.55 276.72 292.93 281.83 293.25 286.92 L 293.71 286.45 C 294.16 281.61 294.45 276.68 294.00 271.83 L 292.89 271.62 Z" />
</g>
<g id="#e9dddfff">
<path fill="#e9dddf" opacity="1.00" d=" M 331.89 220.92 C 336.95 220.45 342.07 220.49 347.14 220.91 C 347.55 223.28 347.55 225.69 347.14 228.07 C 342.07 228.46 336.96 228.57 331.90 228.07 C 331.47 225.71 331.46 223.29 331.89 220.92 Z" />
</g>
<g id="#e07b66ff">
<path fill="#e07b66" opacity="1.00" d=" M 375.04 233.12 C 378.59 233.02 382.73 235.02 382.30 239.18 C 379.67 237.42 377.22 235.40 375.04 233.12 Z" />
</g>
<g id="#2a2725ff">
<path fill="#2a2725" opacity="1.00" d=" M 268.24 234.18 C 270.16 234.40 272.10 234.59 274.01 234.95 C 272.48 236.42 271.02 237.97 269.70 239.64 C 267.48 239.86 265.26 240.09 263.03 240.20 C 264.55 238.01 266.24 235.95 268.24 234.18 Z" />
</g>
<g id="#6a1a20ff">
<path fill="#6a1a20" opacity="1.00" d=" M 315.87 249.93 C 319.94 242.88 327.71 238.20 335.84 237.82 C 340.91 238.52 345.95 239.51 350.90 240.80 C 354.47 244.40 358.54 247.80 360.48 252.63 C 364.57 262.12 362.35 273.68 355.18 281.10 C 352.62 282.79 350.32 284.88 347.58 286.27 C 344.50 287.34 341.21 287.62 337.97 287.82 C 332.38 288.31 327.39 285.17 321.92 284.69 C 318.50 279.69 314.29 274.89 313.01 268.81 C 311.81 262.46 312.42 255.52 315.87 249.93 M 334.42 242.61 C 328.42 243.72 322.90 247.41 319.77 252.68 C 317.15 257.66 316.58 263.71 317.98 269.14 C 320.35 275.45 325.63 281.02 332.39 282.45 C 337.33 283.38 342.89 283.35 347.06 280.12 C 353.07 276.49 356.56 269.86 357.32 263.01 C 356.32 256.74 354.77 249.71 349.10 245.96 C 344.78 243.36 339.49 241.60 334.42 242.61 Z" />
<path fill="#6a1a20" opacity="1.00" d=" M 284.70 242.57 C 294.51 244.69 304.44 242.64 313.96 240.20 C 307.61 243.51 300.29 243.92 293.29 244.36 C 290.47 243.86 287.01 244.47 284.70 242.57 Z" />
<path fill="#6a1a20" opacity="1.00" d=" M 293.37 250.98 C 294.43 255.93 293.36 261.07 293.60 266.10 C 293.43 265.66 293.10 264.77 292.93 264.33 C 293.23 259.88 293.16 255.43 293.37 250.98 Z" />
<path fill="#6a1a20" opacity="1.00" d=" M 271.80 282.58 C 273.39 286.56 274.29 291.45 278.30 293.79 C 284.50 297.68 292.11 296.05 299.02 296.42 C 303.74 296.75 308.46 296.03 312.82 294.16 C 312.22 294.88 311.64 295.62 311.07 296.37 C 302.95 298.36 294.48 297.00 286.20 297.70 C 281.81 296.87 277.13 295.32 274.41 291.53 C 272.40 289.00 272.23 285.65 271.80 282.58 Z" />
<path fill="#6a1a20" opacity="1.00" d=" M 90.17 324.07 C 91.96 327.66 91.36 331.95 93.24 335.56 C 99.79 351.45 102.35 368.50 105.58 385.27 C 107.52 397.47 116.25 407.50 117.06 420.00 C 118.55 440.82 123.49 461.15 127.35 481.61 C 131.88 504.59 136.68 527.52 141.30 550.48 C 142.92 558.62 144.90 566.73 145.82 574.99 C 142.73 562.02 140.02 548.94 137.25 535.89 C 133.37 516.82 129.02 497.85 125.34 478.73 C 122.42 463.51 118.89 448.40 116.90 433.02 C 115.97 426.29 116.11 419.39 114.25 412.81 C 111.95 404.58 106.98 397.36 105.08 388.99 C 102.42 377.10 101.01 364.94 97.98 353.12 C 95.65 343.35 90.70 334.24 90.17 324.07 Z" />
<path fill="#6a1a20" opacity="1.00" d=" M 265.09 380.33 C 265.41 378.91 266.18 377.67 267.30 376.74 C 266.21 386.50 263.20 396.07 263.44 405.98 C 263.72 413.97 262.81 422.05 264.19 429.97 C 264.24 430.38 264.35 431.21 264.40 431.63 C 266.62 451.99 271.38 472.18 279.06 491.20 L 279.29 491.85 C 280.52 495.90 282.60 499.81 282.65 504.13 C 279.13 496.53 276.54 488.55 273.37 480.81 C 269.89 472.77 268.27 464.11 266.07 455.67 C 264.36 448.11 262.63 440.48 262.36 432.71 C 261.78 425.12 260.00 417.60 260.54 409.96 C 261.46 400.01 262.43 390.00 265.09 380.33 Z" />
<path fill="#6a1a20" opacity="1.00" d=" M 463.88 380.69 C 466.98 380.00 470.13 383.26 470.41 386.20 C 467.75 385.03 465.63 382.96 463.88 380.69 Z" />
<path fill="#6a1a20" opacity="1.00" d=" M 459.81 408.73 C 460.24 410.24 460.31 411.82 459.38 413.18 C 456.84 417.62 454.41 422.50 449.95 425.32 C 453.16 419.74 457.13 414.62 459.81 408.73 Z" />
<path fill="#6a1a20" opacity="1.00" d=" M 480.98 411.58 C 481.45 411.66 482.39 411.81 482.86 411.89 C 484.44 414.57 485.29 417.61 486.78 420.34 C 488.63 422.45 491.10 423.92 493.01 426.00 C 497.31 430.24 499.82 435.82 502.34 441.22 C 502.00 441.40 501.32 441.76 500.97 441.94 C 500.72 441.70 500.22 441.23 499.97 440.99 C 498.21 437.21 496.64 433.27 493.93 430.04 C 491.86 427.69 489.89 424.64 486.45 424.39 C 484.27 420.29 482.41 415.99 480.98 411.58 Z" />
<path fill="#6a1a20" opacity="1.00" d=" M 436.39 433.49 C 439.05 432.36 441.64 431.08 444.34 430.03 C 442.65 431.94 440.63 433.53 438.22 434.40 C 432.62 436.55 426.42 438.64 420.43 436.86 C 425.78 435.96 431.33 435.63 436.39 433.49 Z" />
<path fill="#6a1a20" opacity="1.00" d=" M 335.64 433.67 C 339.42 436.46 341.30 440.99 344.79 444.09 C 345.00 444.30 345.42 444.72 345.63 444.93 C 352.95 452.81 362.75 458.33 373.32 460.38 C 375.70 461.07 378.66 461.01 380.24 463.24 C 376.33 463.61 372.51 462.43 368.79 461.42 C 359.26 458.60 350.64 453.18 343.79 446.01 C 343.51 445.75 342.96 445.23 342.68 444.97 C 339.71 441.66 336.67 438.11 335.64 433.67 Z" />
<path fill="#6a1a20" opacity="1.00" d=" M 564.05 491.18 C 565.27 489.39 566.91 487.95 568.81 486.94 C 567.56 488.69 565.95 490.16 564.05 491.18 Z" />
<path fill="#6a1a20" opacity="1.00" d=" M 547.69 512.36 C 552.43 505.84 555.43 497.79 562.23 492.99 C 556.98 499.56 552.19 506.49 548.63 514.14 L 548.09 513.55 C 547.99 513.25 547.79 512.66 547.69 512.36 Z" />
<path fill="#6a1a20" opacity="1.00" d=" M 359.66 508.44 C 361.53 507.47 363.41 506.19 365.63 506.31 L 365.50 507.70 C 352.19 516.14 336.77 521.27 321.05 522.52 C 319.20 522.59 317.35 522.43 315.53 522.22 C 314.62 520.09 317.73 519.92 319.03 519.48 C 322.72 519.16 326.48 519.73 330.10 518.71 C 340.39 516.79 350.47 513.50 359.66 508.44 Z" />
<path fill="#6a1a20" opacity="1.00" d=" M 518.03 534.03 C 523.13 534.36 528.10 537.41 530.29 542.10 C 526.67 538.70 522.89 535.48 518.03 534.03 Z" />
</g>
<g id="#f35259ff">
<path fill="#f35259" opacity="1.00" d=" M 350.90 240.80 C 353.20 241.35 355.85 241.59 357.48 243.53 C 365.82 252.49 368.24 265.21 368.23 277.06 C 368.14 279.26 368.08 281.78 366.36 283.41 C 361.55 288.10 354.53 289.61 348.00 289.36 C 351.30 287.50 353.82 284.63 355.18 281.10 C 362.35 273.68 364.57 262.12 360.48 252.63 C 358.54 247.80 354.47 244.40 350.90 240.80 Z" />
</g>
<g id="#e1e7e5ff">
<path fill="#e1e7e5" opacity="1.00" d=" M 321.32 257.34 C 323.34 251.52 328.90 246.34 335.36 246.72 C 333.11 249.10 329.77 250.14 327.70 252.75 C 324.18 256.67 322.69 262.44 324.51 267.48 C 325.47 271.20 328.43 273.81 330.29 277.05 C 322.38 274.72 318.65 264.76 321.32 257.34 Z" />
</g>
<g id="#b42a35ff">
<path fill="#b42a35" opacity="1.00" d=" M 300.17 252.47 L 300.77 252.06 C 301.27 263.39 301.39 274.77 300.63 286.09 C 299.13 282.27 299.89 278.01 299.65 274.01 C 299.83 266.83 299.26 259.60 300.17 252.47 Z" />
</g>
<g id="#1a2e34ff">
<path fill="#1a2e34" opacity="1.00" d=" M 224.54 273.19 C 228.26 269.03 232.68 265.58 236.52 261.54 C 236.44 262.01 236.28 262.93 236.20 263.39 C 234.31 264.95 232.50 266.59 230.70 268.24 C 223.79 273.79 219.27 282.13 218.50 290.96 C 218.15 295.70 218.29 300.48 218.95 305.19 C 225.69 300.27 231.93 294.64 237.84 288.76 C 237.25 291.03 236.36 293.22 235.39 295.36 C 225.91 316.53 217.05 337.98 207.31 359.02 C 206.14 358.06 205.04 357.02 203.92 356.02 C 202.09 346.07 200.01 335.49 203.74 325.71 C 206.49 317.71 212.62 311.68 218.42 305.81 C 218.06 300.48 217.04 295.12 217.98 289.78 C 218.71 283.79 221.21 278.18 224.54 273.19 Z" />
</g>
<g id="#fefcf7ff">
</g>
<g id="#b92b35ff">
<path fill="#b92b35" opacity="1.00" d=" M 292.89 271.62 L 294.00 271.83 C 294.45 276.68 294.16 281.61 293.71 286.45 L 293.25 286.92 C 292.93 281.83 292.55 276.72 292.89 271.62 Z" />
</g>
<g id="#b9474bff">
<path fill="#b9474b" opacity="1.00" d=" M 347.58 286.27 C 350.32 284.88 352.62 282.79 355.18 281.10 C 353.82 284.63 351.30 287.50 348.00 289.36 C 345.05 289.67 342.12 290.11 339.17 290.41 C 333.12 290.72 325.63 290.24 321.92 284.69 C 327.39 285.17 332.38 288.31 337.97 287.82 C 341.21 287.62 344.50 287.34 347.58 286.27 Z" />
</g>
<g id="#7a372cff">
<path fill="#7a372c" opacity="1.00" d=" M 268.03 284.13 C 268.61 283.89 269.78 283.41 270.36 283.17 C 270.08 285.18 269.80 287.20 269.46 289.20 C 268.94 287.52 268.49 285.82 268.03 284.13 Z" />
</g>
<g id="#ef555bff">
<path fill="#ef555b" opacity="1.00" d=" M 270.36 283.17 C 270.72 283.02 271.44 282.73 271.80 282.58 C 272.23 285.65 272.40 289.00 274.41 291.53 C 277.13 295.32 281.81 296.87 286.20 297.70 C 281.20 297.88 276.15 298.91 271.17 297.99 C 270.46 295.08 269.94 292.15 269.46 289.20 C 269.80 287.20 270.08 285.18 270.36 283.17 Z" />
</g>
<g id="#f69f73ff">
<path fill="#f69f73" opacity="1.00" d=" M 312.80 298.42 C 314.78 298.35 316.76 298.17 318.73 297.91 C 318.23 300.40 317.78 302.98 318.50 305.50 C 322.03 306.74 325.47 304.96 328.69 303.69 C 332.65 301.90 337.23 301.41 341.33 303.07 C 337.56 305.71 332.95 306.51 328.52 307.31 C 323.94 308.11 319.21 308.18 314.67 307.13 C 314.58 304.71 314.63 302.25 313.86 299.93 C 313.60 299.55 313.07 298.79 312.80 298.42 Z" />
</g>
<g id="#2e1f24ff">
<path fill="#2e1f24" opacity="1.00" d=" M 269.72 300.61 C 270.08 300.10 270.79 299.09 271.14 298.59 C 284.73 298.26 298.33 298.42 311.92 298.44 L 312.80 298.42 C 313.07 298.79 313.60 299.55 313.86 299.93 C 313.99 302.70 313.84 305.47 313.63 308.23 C 313.19 305.66 312.79 303.09 312.39 300.52 C 306.97 299.62 301.45 300.19 295.99 300.10 C 287.24 300.22 278.45 299.70 269.72 300.61 Z" />
</g>
<g id="#fc505bff">
<path fill="#fc505b" opacity="1.00" d=" M 86.54 310.19 C 89.92 310.33 92.15 313.42 94.43 315.55 C 104.75 326.81 106.94 342.66 108.83 357.20 C 109.37 360.96 109.98 364.72 110.71 368.45 C 112.14 375.84 114.41 383.17 118.45 389.57 C 122.58 396.36 128.07 402.85 129.10 411.00 C 130.00 419.28 124.95 426.77 125.26 435.01 C 125.14 442.52 129.55 448.98 133.38 455.08 C 137.29 461.51 141.66 468.18 142.11 475.93 C 142.75 485.28 140.48 494.65 141.91 503.98 C 144.37 520.00 157.40 532.50 158.10 548.96 C 158.70 558.67 155.34 568.41 148.96 575.74 C 147.44 576.08 145.95 576.53 144.40 576.69 C 136.35 575.78 127.50 573.28 122.93 566.01 C 119.87 559.76 122.61 552.38 119.96 546.00 C 117.41 540.07 112.77 535.07 111.46 528.62 C 110.48 523.23 111.51 517.76 112.31 512.42 C 114.65 504.33 115.77 495.38 112.66 487.34 C 109.83 479.87 105.17 473.02 104.12 464.94 C 104.08 457.28 104.68 449.61 104.27 441.96 C 103.90 434.43 99.62 428.02 96.69 421.32 C 91.88 410.09 93.23 397.63 91.68 385.79 C 91.42 378.72 91.10 371.55 89.00 364.74 C 86.87 357.51 82.92 350.72 82.64 343.04 C 82.17 331.95 84.65 321.04 86.54 310.19 M 90.17 324.07 C 90.70 334.24 95.65 343.35 97.98 353.12 C 101.01 364.94 102.42 377.10 105.08 388.99 C 106.98 397.36 111.95 404.58 114.25 412.81 C 116.11 419.39 115.97 426.29 116.90 433.02 C 118.89 448.40 122.42 463.51 125.34 478.73 C 129.02 497.85 133.37 516.82 137.25 535.89 C 140.02 548.94 142.73 562.02 145.82 574.99 C 144.90 566.73 142.92 558.62 141.30 550.48 C 136.68 527.52 131.88 504.59 127.35 481.61 C 123.49 461.15 118.55 440.82 117.06 420.00 C 116.25 407.50 107.52 397.47 105.58 385.27 C 102.35 368.50 99.79 351.45 93.24 335.56 C 91.36 331.95 91.96 327.66 90.17 324.07 Z" />
<path fill="#fc505b" opacity="1.00" d=" M 560.91 481.41 C 565.95 478.54 571.27 475.89 577.03 474.88 C 580.48 474.21 584.52 475.53 586.29 478.72 C 587.73 482.03 586.44 485.76 584.75 488.73 C 581.31 494.79 577.28 500.50 572.90 505.91 C 568.88 510.89 563.69 515.72 557.02 516.37 C 553.96 516.99 551.17 515.63 548.63 514.14 C 552.19 506.49 556.98 499.56 562.23 492.99 C 555.43 497.79 552.43 505.84 547.69 512.36 C 545.85 508.55 544.90 504.23 546.04 500.07 C 547.87 491.91 554.52 486.19 560.91 481.41 M 564.05 491.18 C 565.95 490.16 567.56 488.69 568.81 486.94 C 566.91 487.95 565.27 489.39 564.05 491.18 Z" />
</g>
<g id="#f8f0f3ff">
<path fill="#f8f0f3" opacity="1.00" d=" M 276.53 356.47 C 272.75 352.69 271.84 347.02 272.42 341.90 C 272.76 345.49 272.43 349.34 274.24 352.60 C 276.97 358.02 282.85 361.63 288.95 361.42 C 297.06 361.70 306.53 361.10 312.87 367.12 C 319.63 374.51 320.96 385.64 328.94 392.09 C 337.75 398.72 350.97 399.71 360.16 393.25 C 367.43 388.75 370.15 379.98 376.57 374.58 C 380.63 370.37 386.56 368.68 392.27 368.58 L 391.84 369.60 C 388.36 369.49 384.70 369.59 381.65 371.50 C 371.57 376.64 368.59 389.17 358.95 394.86 C 349.24 400.76 335.75 399.30 327.56 391.43 C 320.28 384.99 319.07 374.44 312.60 367.39 C 308.44 363.52 302.53 362.23 296.99 362.54 C 289.91 362.53 281.60 362.14 276.53 356.47 Z" />
<path fill="#f8f0f3" opacity="1.00" d=" M 193.94 387.27 C 203.10 396.89 214.29 404.62 226.65 409.54 C 232.23 411.76 238.28 412.70 243.83 414.90 C 231.80 413.10 220.54 408.04 210.28 401.67 C 204.36 397.47 198.42 393.05 193.94 387.27 Z" />
<path fill="#f8f0f3" opacity="1.00" d=" M 264.19 429.97 C 269.96 432.05 276.03 433.51 281.30 436.78 C 289.90 441.96 298.15 447.86 307.52 451.62 C 313.69 453.78 320.51 455.34 326.93 453.23 C 332.55 451.40 338.46 449.30 342.68 444.97 C 342.96 445.23 343.51 445.75 343.79 446.01 C 337.50 449.48 331.33 453.85 323.96 454.55 C 312.29 456.02 301.36 450.17 291.97 443.92 C 283.37 438.77 274.89 431.83 264.40 431.63 C 264.35 431.21 264.24 430.38 264.19 429.97 Z" />
<path fill="#f8f0f3" opacity="1.00" d=" M 369.91 431.13 C 378.18 428.67 386.86 432.25 392.92 437.92 C 388.61 435.24 384.31 431.93 379.05 431.57 C 366.51 430.18 354.89 437.20 345.63 444.93 C 345.42 444.72 345.00 444.30 344.79 444.09 C 352.90 439.31 360.46 433.12 369.91 431.13 Z" />
<path fill="#f8f0f3" opacity="1.00" d=" M 469.17 461.15 C 476.40 454.18 477.46 443.66 481.90 435.11 C 478.45 445.48 475.85 457.59 466.15 464.06 C 461.42 467.91 455.22 468.46 449.41 469.20 C 439.05 469.45 429.42 465.16 420.10 461.16 C 430.74 464.42 441.41 469.97 452.89 468.19 C 458.68 466.95 464.85 465.51 469.17 461.15 Z" />
<path fill="#f8f0f3" opacity="1.00" d=" M 170.13 440.65 C 171.71 439.56 174.01 440.54 175.84 440.51 C 186.16 442.51 195.54 448.72 201.60 457.29 C 206.01 463.09 208.60 470.09 213.38 475.62 C 217.58 479.27 222.80 482.47 228.62 481.26 L 228.69 481.85 C 219.20 482.85 211.36 475.73 207.38 467.77 C 202.94 458.99 196.92 450.63 188.26 445.63 C 182.60 442.88 176.57 440.19 170.13 440.65 Z" />
<path fill="#f8f0f3" opacity="1.00" d=" M 495.09 441.41 C 496.57 440.54 498.36 440.07 499.97 440.99 C 500.22 441.23 500.72 441.70 500.97 441.94 L 501.45 442.40 C 499.33 442.05 497.21 441.73 495.09 441.41 Z" />
<path fill="#f8f0f3" opacity="1.00" d=" M 505.21 441.02 C 507.28 443.66 507.96 447.04 508.33 450.31 C 507.87 459.64 504.76 468.53 502.27 477.46 C 497.80 490.52 489.63 503.83 476.06 508.81 C 479.26 506.76 482.86 505.33 485.72 502.77 C 495.27 494.80 500.19 482.80 503.29 471.07 C 506.05 461.43 510.13 450.68 505.21 441.02 Z" />
<path fill="#f8f0f3" opacity="1.00" d=" M 279.06 491.20 C 284.50 490.02 290.07 488.68 295.67 489.66 C 309.23 491.71 321.20 499.59 330.84 509.04 C 324.12 503.56 317.24 498.08 309.23 494.61 C 300.03 490.17 289.13 489.11 279.29 491.85 L 279.06 491.20 Z" />
</g>
<g id="#fefdfdff">
</g>
<g id="#ecebecff">
<path fill="#ecebec" opacity="1.00" d=" M 91.68 385.79 C 93.23 397.63 91.88 410.09 96.69 421.32 C 99.62 428.02 103.90 434.43 104.27 441.96 C 104.68 449.61 104.08 457.28 104.12 464.94 C 99.54 465.30 94.96 465.88 90.52 467.10 C 87.93 455.44 83.76 444.01 76.85 434.18 C 74.71 431.15 72.40 428.25 70.15 425.31 C 72.79 421.19 74.83 416.69 75.93 411.91 C 76.60 409.14 77.96 406.56 80.10 404.66 C 83.51 401.14 86.00 396.88 89.00 393.02 C 90.67 390.97 91.34 388.36 91.68 385.79 Z" />
</g>
<g id="#bc343eff">
<path fill="#bc343e" opacity="1.00" d=" M 68.16 424.21 C 68.66 424.49 69.66 425.04 70.15 425.31 C 72.40 428.25 74.71 431.15 76.85 434.18 C 83.76 444.01 87.93 455.44 90.52 467.10 C 92.78 475.84 104.48 476.33 107.32 484.68 C 110.38 493.68 106.13 504.29 112.31 512.42 C 111.51 517.76 110.48 523.23 111.46 528.62 C 112.77 535.07 117.41 540.07 119.96 546.00 C 122.61 552.38 119.87 559.76 122.93 566.01 C 127.50 573.28 136.35 575.78 144.40 576.69 C 134.06 577.90 123.57 576.86 113.29 575.50 C 102.17 572.47 93.62 563.08 89.73 552.49 C 87.53 545.04 92.38 538.38 94.45 531.58 C 95.99 527.15 95.17 522.23 92.72 518.30 C 89.36 512.51 84.00 507.88 81.87 501.39 C 79.07 490.90 86.37 479.84 81.05 469.70 C 78.89 465.04 76.07 460.71 74.07 455.97 C 71.21 449.53 69.65 442.62 68.41 435.72 C 68.30 431.88 68.14 428.05 68.16 424.21 Z" />
</g>
<g id="#edebebff">
<path fill="#edebeb" opacity="1.00" d=" M 68.41 435.72 C 69.65 442.62 71.21 449.53 74.07 455.97 C 76.07 460.71 78.89 465.04 81.05 469.70 C 76.56 470.00 72.34 471.61 68.08 472.93 C 66.35 469.93 66.06 466.42 65.89 463.03 C 65.59 453.88 65.45 444.51 68.41 435.72 Z" />
</g>
<g id="#d53f49ff">
<path fill="#d53f49" opacity="1.00" d=" M 522.96 461.97 C 525.23 458.94 529.95 457.39 533.23 459.74 C 536.10 461.75 537.48 465.13 538.77 468.25 C 542.39 477.68 544.22 487.93 543.20 498.02 C 542.73 502.45 541.25 507.44 536.77 509.33 C 535.07 500.13 534.50 490.57 531.05 481.79 C 531.08 485.42 531.60 489.02 532.32 492.58 C 533.49 498.33 533.94 504.20 535.05 509.97 C 534.29 509.91 532.77 509.77 532.01 509.71 C 527.47 508.22 524.66 503.98 523.49 499.54 C 521.42 491.84 519.07 484.04 519.23 475.98 C 519.19 471.12 519.89 465.92 522.96 461.97 Z" />
</g>
<g id="#fefafbff">
</g>
<g id="#992832ff">
<path fill="#992832" opacity="1.00" d=" M 531.05 481.79 C 534.50 490.57 535.07 500.13 536.77 509.33 C 536.34 509.49 535.48 509.81 535.05 509.97 C 533.94 504.20 533.49 498.33 532.32 492.58 C 531.60 489.02 531.08 485.42 531.05 481.79 Z" />
</g>
<g id="#efeaeaff">
</g>
<g id="#f9515cff">
<path fill="#f9515c" opacity="1.00" d=" M 501.12 531.14 C 504.49 527.85 509.47 527.26 513.97 527.25 C 519.80 527.02 526.24 528.20 530.41 532.61 C 533.53 535.97 533.63 540.83 532.86 545.10 C 532.04 544.30 531.20 543.54 530.35 542.79 C 530.92 544.18 531.52 545.55 532.16 546.93 C 529.88 548.00 527.22 549.75 524.68 548.35 C 521.87 546.55 520.00 543.49 516.88 542.15 C 512.18 540.59 507.05 542.20 502.33 540.77 C 498.33 539.43 498.55 533.73 501.12 531.14 M 518.03 534.03 C 522.89 535.48 526.67 538.70 530.29 542.10 C 528.10 537.41 523.13 534.36 518.03 534.03 Z" />
</g>
<g id="#b6b9bbff">
</g>
<g id="#c1525bff">
</g>
<g id="#c0535cff">
</g>
<g id="#b7b4b6ff">
</g>
<g id="#dddbddff">
<path fill="#dddbdd" opacity="1.00" d=" M 566.19 576.08 C 568.43 575.97 570.68 575.95 572.93 575.84 C 572.96 576.40 573.03 577.51 573.06 578.06 C 570.29 578.57 567.46 578.47 564.70 577.96 C 565.07 577.49 565.82 576.55 566.19 576.08 Z" />
</g>
</svg>
